<svg xmlns="http://www.w3.org/2000/svg" xmlns:xlink="http://www.w3.org/1999/xlink" xmlns:svgjs="http://svgjs.com/svgjs" version="1.1" width="512" height="512" x="0" y="0" viewBox="0 0 72 72" style="enable-background:new 0 0 512 512" xml:space="preserve" class=""><g><path d="M67.21 8.717c-1.337-1.598-4.045-2.373-5.946-.985l-13.298 9.726c-.9-3.105-1.785-6.163-2.638-9.126.098-.547-.346-.896-.776-.876-.464.032-.911.067-1.555.116-.958-2.554-3.602-4.07-6.049-3.88-3.641.26-5.803 3.97-5.35 4.978l-.987.116c-1.074-2.095-3.439-3.472-5.79-3.308-3.612.257-5.732 3.883-5.373 4.915-.713.12-1.428.242-2.15.369-1.19-1.742-3.31-2.846-5.424-2.68-3.295.235-5.582 3.494-5.418 4.77l-1.096.227a.75.75 0 0 0-.426 1.21c.138.345.276.7.414 1.058-.986-.121-1.712.977-1.552 1.71 3.571 16.325 7.222 33.573 9.886 50.103.155.958 1.006 1.416 1.893 1.023l.253-.114c3.322-.472 7.137-2.037 37.318-4.604.77-.056 1.784.007 1.628-.925-.36-2.15-.73-4.352-1.111-6.592l-.001-.003c1.395-.236 2.787-.464 4.17-.675.26-.331.764-1.345.694-1.66-.183-.827-7.77-26.609-7.875-26.966l16.115-11.786c1.824-1.334 1.902-4.4.444-6.141zM44.65 29.174c-.122-.928-.343-1.45-1.11-2.06 6.203-4.455 13.164-9.187 18.863-13.99.06-.05.1-.113.14-.176.805 1.162.708 1.332.725 2.61zm-4.695 1.598c-.553-.758-1.063-1.624-1.72-2.26.043-.1.823-1.958 1.036-2.477.342.008 1.085.255 1.464.501.318.205.56.531.668.894a.749.749 0 0 0 .6.528c.339.055.91.496 1.02.787.157.417.195 1.03.135 1.31-.975.288-2.087.52-3.203.717zm19.748-20.039c.66.137 1.334.576 1.922 1.14-.065.03-.131.056-.189.105-5.77 4.862-12.934 9.714-19.028 14.102-.006.005-.01.013-.016.018-.386-.545-.86-.95-1.9-1.316zM37.054 5.188c1.792-.113 3.565.924 4.364 2.512-2.956.242-5.744.506-8.401.803.496-1.792 2.182-3.182 4.037-3.315zM24.927 6.974c1.587-.108 3.178.71 4.073 2.014-2.684.338-5.356.722-8.061 1.16.544-1.723 2.182-3.045 3.988-3.174zM11.98 9.578c1.36-.095 2.722.494 3.648 1.484-2.434.442-4.93.922-7.554 1.456.614-1.606 2.183-2.817 3.906-2.94zM53.155 61.96c-12.397 1.055-24.714 2.107-36.944 4.506-1.498-11.117-3.502-24.706-5.65-35.939 4.032 12.84 8.324 29.032 8.855 31.422.102.559.437.923.804 1.118 10.366-2.508 21.3-5.008 31.964-6.865.332 1.95.655 3.872.971 5.758zm3.687-8.776C44.624 55.57 32.36 57.177 20.69 60.855 18.312 51.52 11.891 27.95 6.574 14.358c3.504-.73 6.764-1.362 9.928-1.931.593 1.502.292 3.303-.72 4.552-1.15-.406-2.328.38-2.328 1.454 0 .862.767 1.562 1.712 1.562 1.076 0 1.935-.916 1.655-1.94 1.365-1.589 1.829-3.899 1.168-5.89a236.337 236.337 0 0 1 11.65-1.748 4.697 4.697 0 0 1-.972 4.021c-1.089-.15-1.969.622-1.969 1.54 0 .862.766 1.562 1.712 1.562 1.246 0 2.117-1.203 1.517-2.271 1.1-1.398 1.542-3.29 1.194-5.033 3.364-.405 6.893-.757 10.728-1.067.13 1.23-.241 2.51-1.032 3.461-1.136-.29-2.171.498-2.171 1.498 0 .863.766 1.563 1.711 1.563 1.15 0 2.023-1.038 1.603-2.094 1.039-1.25 1.535-2.929 1.38-4.546l.621-.047c.879 3.053 1.789 6.197 2.717 9.396l-8.256 6.038a.751.751 0 0 0-.255.33c-1.136 2.864-2.176 4.87-2.768 7.268a.75.75 0 0 0 .892.911c2.006-.449 5.494-.804 7.933-1.645a.755.755 0 0 0 .2-.104l4.94-3.614c2.447 8.303 5.119 17.366 7.478 25.599z" fill="#000000" data-original="#000000" class=""/><path d="M37.997 43.083c-.189.465-.733.832-1.354.914-2.062.258-3.994-2.104-6.045-.834-.975.602-1.212 1.708-1.695 2.349-.82 1.089-2.634 1.064-3.974.578-1.647-.598-3.053-1.658-4.889-2.107a.75.75 0 0 0-.355 1.457c1.597.391 3.016 1.437 4.734 2.06 1.957.707 4.418.592 5.682-1.086.547-.727.778-1.661 1.286-1.976 1.127-.693 3.006 1.375 5.45 1.045 1.158-.151 2.159-.872 2.55-1.836 1.32-3.256 2.295.677 7.826-1.258a.75.75 0 0 0-.495-1.416c-5.004 1.753-6.764-2.726-8.72 2.11zM23.402 37.44c1.227.401 2.614.394 3.723-.29 1.1-.685 1.936-2.233 2.874-2.028.56.133 1.325 1.03 2.413.775 1.143-.266 1.369-1.472 1.903-1.652.614.656 1.663-.141 1.184-.91-.6-.958-1.979-.675-2.66.186-.771.972-.56 1.158-1.449.625-.299-.181-.638-.387-1.044-.483-1.915-.459-3.09 1.639-4.011 2.211-.629.389-1.55.44-2.464.14-.92-.302-1.767-.894-2.587-1.465a.75.75 0 1 0-.857 1.23c.865.604 1.847 1.288 2.975 1.66z" fill="#000000" data-original="#000000" class=""/></g></svg>